<?xml version="1.0" ?><svg enable-background="new 0 0 512 512" id="Layer_1" version="1.1" viewBox="0 0 512 512" xml:space="preserve" xmlns="http://www.w3.org/2000/svg" xmlns:xlink="http://www.w3.org/1999/xlink"><g><path d="M198.8,144.6c17.4,17.4,28.5,52.8,13.5,67.8c-15,15-50.4,3.8-67.8-13.5s-19.3-43.6-4.3-58.6   S181.4,127.2,198.8,144.6z" fill="#FF70C2"/><path d="M136.8,217.6c24.6,0,57.5,17.2,57.5,38.4s-32.9,38.4-57.5,38.4S92.3,277.2,92.3,256   S112.2,217.6,136.8,217.6z" fill="#005EA7"/><path d="M144.6,313.2c17.4-17.4,52.8-28.5,67.8-13.5c15,15,3.8,50.4-13.5,67.8c-17.4,17.4-43.6,19.3-58.6,4.3   S127.2,330.6,144.6,313.2z" fill="#13CBFF"/><path d="M217.6,375.2c0-24.6,17.2-57.5,38.4-57.5s38.4,32.9,38.4,57.5c0,24.6-17.2,44.5-38.4,44.5   S217.6,399.8,217.6,375.2z" fill="#008927"/><path d="M313.2,367.4c-17.4-17.4-28.5-52.8-13.5-67.8s50.4-3.8,67.8,13.5c17.4,17.4,19.3,43.6,4.3,58.6   S330.6,384.8,313.2,367.4z" fill="#13FF57"/><path d="M375.2,294.4c-24.6,0-57.5-17.2-57.5-38.4s32.9-38.4,57.5-38.4c24.6,0,44.5,17.2,44.5,38.4   S399.8,294.4,375.2,294.4z" fill="#FFF531"/><path d="M367.4,198.8c-17.4,17.4-52.8,28.5-67.8,13.5c-15-15-3.8-50.4,13.5-67.8s43.6-19.3,58.6-4.3   S384.8,181.4,367.4,198.8z" fill="#FF8013"/><path d="M294.4,136.8c0,24.6-17.2,57.5-38.4,57.5s-38.4-32.9-38.4-57.5s17.2-44.5,38.4-44.5   S294.4,112.2,294.4,136.8z" fill="#FF2020"/><linearGradient gradientUnits="userSpaceOnUse" id="SVGID_1_" x1="256" x2="256" y1="190.3494" y2="96.1824"><stop offset="0" style="stop-color:#FFFFFF;stop-opacity:0"/><stop offset="0.8773" style="stop-color:#FFFFFF;stop-opacity:0.5264"/><stop offset="1" style="stop-color:#FFFFFF;stop-opacity:0.6"/></linearGradient><path d="M256,190.3c-8.2,0-16.9-6.4-23.8-17.7c-6.6-10.7-10.7-24.5-10.7-35.9c0-22.4,15.5-40.6,34.5-40.6   c19,0,34.5,18.2,34.5,40.6c0,11.4-4.1,25.2-10.7,35.9C272.9,183.9,264.2,190.3,256,190.3z" fill="url(#SVGID_1_)"/><linearGradient gradientTransform="matrix(0.7071 -0.7071 0.7071 0.7071 -106.0387 256)" gradientUnits="userSpaceOnUse" id="SVGID_2_" x1="256" x2="256" y1="190.3494" y2="96.1824"><stop offset="0" style="stop-color:#FFFFFF;stop-opacity:0"/><stop offset="0.8773" style="stop-color:#FFFFFF;stop-opacity:0.5264"/><stop offset="1" style="stop-color:#FFFFFF;stop-opacity:0.6"/></linearGradient><path d="M209.6,209.6c-5.8,5.8-16.5,7.4-29.3,4.3c-12.2-2.9-24.8-9.8-32.9-17.9   c-15.8-15.8-17.8-39.6-4.3-53.1c13.4-13.4,37.2-11.5,53.1,4.3c8.1,8.1,14.9,20.7,17.9,32.9C217,193.1,215.4,203.8,209.6,209.6z" fill="url(#SVGID_2_)"/><linearGradient gradientTransform="matrix(4.489700e-11 -1 1 4.489700e-11 0 512)" gradientUnits="userSpaceOnUse" id="SVGID_3_" x1="256" x2="256" y1="190.3494" y2="96.1824"><stop offset="0" style="stop-color:#FFFFFF;stop-opacity:0"/><stop offset="0.8773" style="stop-color:#FFFFFF;stop-opacity:0.5264"/><stop offset="1" style="stop-color:#FFFFFF;stop-opacity:0.6"/></linearGradient><path d="M190.3,256c0,8.2-6.4,16.9-17.7,23.8c-10.7,6.6-24.5,10.7-35.9,10.7c-22.4,0-40.6-15.5-40.6-34.5   s18.2-34.5,40.6-34.5c11.4,0,25.2,4.1,35.9,10.7C183.9,239.1,190.3,247.8,190.3,256z" fill="url(#SVGID_3_)"/><linearGradient gradientTransform="matrix(-0.7071 -0.7071 0.7071 -0.7071 256 618.0387)" gradientUnits="userSpaceOnUse" id="SVGID_4_" x1="256" x2="256" y1="190.3494" y2="96.1824"><stop offset="0" style="stop-color:#FFFFFF;stop-opacity:0"/><stop offset="0.8773" style="stop-color:#FFFFFF;stop-opacity:0.5264"/><stop offset="1" style="stop-color:#FFFFFF;stop-opacity:0.6"/></linearGradient><path d="M209.6,302.4c5.8,5.8,7.4,16.5,4.3,29.3c-2.9,12.2-9.8,24.8-17.9,32.9   c-15.8,15.8-39.6,17.8-53.1,4.3c-13.4-13.4-11.5-37.2,4.3-53.1c8.1-8.1,20.7-14.9,32.9-17.9C193.1,295,203.8,296.6,209.6,302.4z" fill="url(#SVGID_4_)"/><linearGradient gradientTransform="matrix(-1 0 0 -1 512 512)" gradientUnits="userSpaceOnUse" id="SVGID_5_" x1="256" x2="256" y1="190.3494" y2="96.1824"><stop offset="0" style="stop-color:#FFFFFF;stop-opacity:0"/><stop offset="0.8773" style="stop-color:#FFFFFF;stop-opacity:0.5264"/><stop offset="1" style="stop-color:#FFFFFF;stop-opacity:0.6"/></linearGradient><path d="M256,321.7c8.2,0,16.9,6.4,23.8,17.7c6.6,10.7,10.7,24.5,10.7,35.9c0,22.4-15.5,40.6-34.5,40.6   s-34.5-18.2-34.5-40.6c0-11.4,4.1-25.2,10.7-35.9C239.1,328.1,247.8,321.7,256,321.7z" fill="url(#SVGID_5_)"/><linearGradient gradientTransform="matrix(-0.7071 0.7071 -0.7071 -0.7071 618.0387 256)" gradientUnits="userSpaceOnUse" id="SVGID_6_" x1="256" x2="256" y1="190.3494" y2="96.1824"><stop offset="0" style="stop-color:#FFFFFF;stop-opacity:0"/><stop offset="0.8773" style="stop-color:#FFFFFF;stop-opacity:0.5264"/><stop offset="1" style="stop-color:#FFFFFF;stop-opacity:0.6"/></linearGradient><path d="M302.4,302.4c5.8-5.8,16.5-7.4,29.3-4.3c12.2,2.9,24.8,9.8,32.9,17.9c15.8,15.8,17.8,39.6,4.3,53.1   c-13.4,13.4-37.2,11.5-53.1-4.3c-8.1-8.1-14.9-20.7-17.9-32.9C295,318.9,296.6,308.2,302.4,302.4z" fill="url(#SVGID_6_)"/><linearGradient gradientTransform="matrix(-4.489700e-11 1 -1 -4.489700e-11 512 0)" gradientUnits="userSpaceOnUse" id="SVGID_7_" x1="256" x2="256" y1="190.3494" y2="96.1824"><stop offset="0" style="stop-color:#FFFFFF;stop-opacity:0"/><stop offset="0.8773" style="stop-color:#FFFFFF;stop-opacity:0.5264"/><stop offset="1" style="stop-color:#FFFFFF;stop-opacity:0.6"/></linearGradient><path d="M321.7,256c0-8.2,6.4-16.9,17.7-23.8c10.7-6.6,24.5-10.7,35.9-10.7c22.4,0,40.6,15.5,40.6,34.5   c0,19-18.2,34.5-40.6,34.5c-11.4,0-25.2-4.1-35.9-10.7C328.1,272.9,321.7,264.2,321.7,256z" fill="url(#SVGID_7_)"/><linearGradient gradientTransform="matrix(0.7071 0.7071 -0.7071 0.7071 256 -106.0387)" gradientUnits="userSpaceOnUse" id="SVGID_8_" x1="256" x2="256" y1="190.3494" y2="96.1824"><stop offset="0" style="stop-color:#FFFFFF;stop-opacity:0"/><stop offset="0.8773" style="stop-color:#FFFFFF;stop-opacity:0.5264"/><stop offset="1" style="stop-color:#FFFFFF;stop-opacity:0.6"/></linearGradient><path d="M302.4,209.6c-5.8-5.8-7.4-16.5-4.3-29.3c2.9-12.2,9.8-24.8,17.9-32.9c15.8-15.8,39.6-17.8,53.1-4.3   c13.4,13.4,11.5,37.2-4.3,53.1c-8.1,8.1-20.7,14.9-32.9,17.9C318.9,217,308.2,215.4,302.4,209.6z" fill="url(#SVGID_8_)"/><circle cx="256" cy="256" fill="#006BFC" r="50.8"/><linearGradient gradientUnits="userSpaceOnUse" id="SVGID_9_" x1="256" x2="256" y1="300.7344" y2="211.2656"><stop offset="0" style="stop-color:#FFFFFF;stop-opacity:0"/><stop offset="0.8773" style="stop-color:#FFFFFF;stop-opacity:0.5264"/><stop offset="1" style="stop-color:#FFFFFF;stop-opacity:0.6"/></linearGradient><circle cx="256" cy="256" fill="url(#SVGID_9_)" r="44.7"/></g></svg>